<?xml version="1.0" encoding="UTF-8"?>
<svg xmlns="http://www.w3.org/2000/svg" id="Layer_1" data-name="Layer 1" viewBox="0 0 24 24">
  <path d="m5,5.5v-2c0-1.93,1.57-3.5,3.5-3.5h2c.276,0,.5.224.5.5s-.224.5-.5.5h-2c-1.379,0-2.5,1.121-2.5,2.5v2c0,.276-.224.5-.5.5s-.5-.224-.5-.5Zm18.5,7.5c-.276,0-.5.224-.5.5v2c0,1.379-1.121,2.5-2.5,2.5h-2c-.276,0-.5.224-.5.5s.224.5.5.5h2c1.93,0,3.5-1.57,3.5-3.5v-2c0-.276-.224-.5-.5-.5ZM20.5,0h-2c-.276,0-.5.224-.5.5s.224.5.5.5h2c1.379,0,2.5,1.121,2.5,2.5v2c0,.276.224.5.5.5s.5-.224.5-.5v-2c0-1.93-1.57-3.5-3.5-3.5Zm-2.949,13.567l-2.199-.225-1.026,2.03c-.227.453-.691.733-1.19.733-.058,0-.115-.004-.173-.011-.562-.073-1.017-.494-1.134-1.048l-.379-1.79L.854,23.854c-.098.098-.226.146-.354.146s-.256-.049-.354-.146c-.195-.195-.195-.512,0-.707l10.579-10.579-1.739-.345c-.26-.05-.497-.177-.686-.365-.202-.202-.336-.47-.377-.754-.081-.56.202-1.111.704-1.373l2.034-1.066-.227-2.209c-.046-.565.263-1.096.769-1.33.505-.232,1.109-.125,1.503.267l1.522,1.523,2.067-.981c.508-.232,1.111-.124,1.504.268.394.392.502.994.27,1.499l-.983,2.072,1.522,1.521c.396.396.502,1.003.266,1.508-.235.506-.774.806-1.324.766Zm.351-1.567l-1.771-1.77c-.149-.149-.188-.377-.099-.567l1.132-2.386c.056-.121.028-.271-.069-.368-.099-.099-.249-.126-.376-.068l-2.38,1.129c-.191.091-.418.05-.567-.099l-1.771-1.771c-.063-.063-.15-.098-.237-.098-.048,0-.096.011-.14.031-.127.059-.204.191-.193.331l.261,2.534c.021.203-.084.398-.265.493l-2.335,1.225c-.127.066-.198.205-.178.345.01.073.043.139.094.189.047.047.106.079.171.091l2.668.529c.197.039.352.191.393.387l.567,2.684c.029.139.144.244.284.263.142.02.277-.053.341-.18l1.183-2.339c.094-.185.292-.297.497-.271l2.533.259c.147.003.266-.066.323-.192.061-.128.033-.28-.066-.38Z"/>
</svg>
